<svg id="Слой_1" data-name="Слой 1" xmlns="http://www.w3.org/2000/svg" viewBox="0 0 136.4 128.2"><defs><style>.cls-1{fill:#2d4d99;}.cls-1,.cls-2,.cls-3{isolation:isolate;opacity:0.8;}.cls-2{fill:#3667af;}.cls-3,.cls-4{fill:#3f81c3;}</style></defs><path class="cls-1" d="M59.6,102.5h-.8A38.75,38.75,0,1,1,97.6,63.8H104a45.15,45.15,0,1,0-45.2,45h.8Z"/><path class="cls-2" d="M59.6,94.8h-.8A30.5,30.5,0,1,1,89.3,63.6h5A35.45,35.45,0,1,0,58.9,99.8h.8v-5Z"/><path class="cls-3" d="M58.8,87.1a19.92,19.92,0,0,1-4.2-.4h0A22.69,22.69,0,1,1,74.8,48.4h0c.5.5.9,1,1.4,1.5.1.1.1.2.2.2a12.13,12.13,0,0,1,1,1.4.52.52,0,0,1,.2.4c.3.5.6.9.9,1.4a.76.76,0,0,1,.2.4,8.86,8.86,0,0,1,.8,1.7c0,.1.1.1.1.2a15.87,15.87,0,0,1,.7,2c0,.1.1.2.1.3.1.5.3,1,.4,1.4h0a21.18,21.18,0,0,1,.5,4.4h4.4a27,27,0,1,0-27,27.6h.2V87A.1.1,0,0,1,58.8,87.1Z"/><path class="cls-4" d="M69.7,67.7a6,6,0,0,0-1.5-.9,4.53,4.53,0,0,0-1.6-.3,3.61,3.61,0,0,0-3.7,3.9,3.62,3.62,0,0,0,1,2.7,3.47,3.47,0,0,0,2.6,1.1,4.73,4.73,0,0,0,3.3-1.3v1.9a3.48,3.48,0,0,1-1.5.7,4.68,4.68,0,0,1-1.7.2,5.38,5.38,0,0,1-2.2-.4,5,5,0,0,1-1.7-1.1,4.52,4.52,0,0,1-1.1-1.7,5.22,5.22,0,0,1,1.2-5.9,4.52,4.52,0,0,1,1.7-1.1,5.22,5.22,0,0,1,2.1-.4,4.67,4.67,0,0,1,1.7.3,6,6,0,0,1,1.6.8Z"/><path class="cls-4" d="M82.2,70.4a4.48,4.48,0,0,1-.4,2,6.57,6.57,0,0,1-1.2,1.7,5.67,5.67,0,0,1-1.8,1.2,4.92,4.92,0,0,1-2.1.4,5.22,5.22,0,0,1-2.1-.4,7.07,7.07,0,0,1-1.8-1.2,6.57,6.57,0,0,1-1.2-1.7,4.64,4.64,0,0,1-.4-2.1,5,5,0,0,1,1.6-3.8,5.67,5.67,0,0,1,1.8-1.2,5.71,5.71,0,0,1,4.2,0,5.17,5.17,0,0,1,1.8,1.2,6.57,6.57,0,0,1,1.2,1.7A9.33,9.33,0,0,1,82.2,70.4Zm-1.8,0a4,4,0,0,0-.3-1.5,3.6,3.6,0,0,0-.8-1.2,2.55,2.55,0,0,0-1.2-.8,3.53,3.53,0,0,0-1.4-.3,3.19,3.19,0,0,0-1.4.3,3.6,3.6,0,0,0-1.2.8,4.18,4.18,0,0,0-.8,1.2,3.65,3.65,0,0,0-.3,1.5,4,4,0,0,0,.3,1.5,3.6,3.6,0,0,0,.8,1.2,4.18,4.18,0,0,0,1.2.8,3.42,3.42,0,0,0,2.8,0,8.34,8.34,0,0,0,1.2-.8,4.18,4.18,0,0,0,.8-1.2A2.7,2.7,0,0,0,80.4,70.4Z"/><path class="cls-4" d="M84.1,75.4V65.3h2.2a20.51,20.51,0,0,1,3.1.2,4.59,4.59,0,0,1,1.6.7,3.71,3.71,0,0,1,1.3,1.7,6,6,0,0,1,0,4.8A3.71,3.71,0,0,1,91,74.4a4.13,4.13,0,0,1-1.5.7,16.12,16.12,0,0,1-2.6.2H84.1Zm1.6-1.5h1.4a6.53,6.53,0,0,0,1.7-.2,3.13,3.13,0,0,0,1-.5,2.73,2.73,0,0,0,.9-1.2,5,5,0,0,0,0-3.4,2.73,2.73,0,0,0-.9-1.2,3.13,3.13,0,0,0-1-.5,7.75,7.75,0,0,0-1.9-.2H85.7Z"/><path class="cls-4" d="M94.6,75.4V65.3h5.7v1.4h-4v2.5h4v1.5h-4V74h4v1.5H94.6Z"/><path class="cls-4" d="M69.7,84.8a6,6,0,0,0-1.5-.9,4.53,4.53,0,0,0-1.6-.3,3.61,3.61,0,0,0-3.7,3.9,3.62,3.62,0,0,0,1,2.7,3.47,3.47,0,0,0,2.6,1.1A4.73,4.73,0,0,0,69.8,90v1.9a3.48,3.48,0,0,1-1.5.7,4.68,4.68,0,0,1-1.7.2,5.38,5.38,0,0,1-2.2-.4,5,5,0,0,1-1.7-1.1,4.52,4.52,0,0,1-1.1-1.7,5.22,5.22,0,0,1,1.2-5.9,4.52,4.52,0,0,1,1.7-1.1,5.22,5.22,0,0,1,2.1-.4,4.67,4.67,0,0,1,1.7.3,6,6,0,0,1,1.6.8Z"/><path class="cls-4" d="M78.5,92.5l-1.2-2.6h-4l-1.2,2.6H70.4l4.9-10.6,4.9,10.6Zm-4.6-4h2.8l-1-2.3c-.1-.1-.1-.3-.2-.5s-.1-.4-.2-.6c-.1.2-.1.4-.2.6s-.1.3-.2.5Z"/><path class="cls-4" d="M82.7,88v4.5H81.2V82.3h2.3a7.12,7.12,0,0,1,1.6.1,3,3,0,0,1,1,.4,1.83,1.83,0,0,1,.7,1,2.77,2.77,0,0,1,.3,1.3,2.71,2.71,0,0,1-.6,1.9,2.49,2.49,0,0,1-1.7.8l3.5,4.6H86.4L82.9,88Zm.1-1.3h.3a2.94,2.94,0,0,0,1.7-.3,1.25,1.25,0,0,0,.4-1.1,1.36,1.36,0,0,0-.5-1.2,3.42,3.42,0,0,0-1.7-.3h-.3v2.9Z"/><path class="cls-4" d="M89.1,92.5V82.3h5.7v1.4h-4v2.5h4v1.5h-4V91h4v1.5Z"/><path class="cls-4" d="M96.7,92.5V82.3h5.7v1.4h-4v2.5h4v1.5h-4V91h4v1.5Z"/><path class="cls-4" d="M105.8,88v4.5h-1.5V82.3h2.3a7.12,7.12,0,0,1,1.6.1,3,3,0,0,1,1,.4,1.83,1.83,0,0,1,.7,1,2.77,2.77,0,0,1,.3,1.3,2.71,2.71,0,0,1-.6,1.9,2.49,2.49,0,0,1-1.7.8l3.5,4.6h-1.9L106,88Zm.1-1.3h.3a2.94,2.94,0,0,0,1.7-.3,1.25,1.25,0,0,0,.4-1.1,1.36,1.36,0,0,0-.5-1.2,3.42,3.42,0,0,0-1.7-.3h-.3v2.9Z"/><path class="cls-4" d="M69.7,101.9a6,6,0,0,0-1.5-.9,4.53,4.53,0,0,0-1.6-.3,3.61,3.61,0,0,0-3.7,3.9,3.62,3.62,0,0,0,1,2.7,3.47,3.47,0,0,0,2.6,1.1,4.73,4.73,0,0,0,3.3-1.3V109a3.48,3.48,0,0,1-1.5.7,4.68,4.68,0,0,1-1.7.2,5.38,5.38,0,0,1-2.2-.4,5,5,0,0,1-1.7-1.1,4.52,4.52,0,0,1-1.1-1.7,5.22,5.22,0,0,1,1.2-5.9,4.52,4.52,0,0,1,1.7-1.1,5.22,5.22,0,0,1,2.1-.4,4.67,4.67,0,0,1,1.7.3,6,6,0,0,1,1.6.8Z"/><path class="cls-4" d="M71.7,109.6V99.4h5.7v1.4h-4v2.5h4v1.5h-4v3.3h4v1.5Z"/><path class="cls-4" d="M79.3,109.6V99l6.5,6.2a2.65,2.65,0,0,1,.5.6c.1.2.4.4.6.7v-7h1.5V110l-6.6-6.3c-.2-.2-.3-.4-.5-.5s-.3-.4-.5-.6v7.1H79.3Z"/><path class="cls-4" d="M94,100.8v8.8H92.3v-8.8H89.6V99.4h7v1.4Z"/><path class="cls-4" d="M99.5,105v4.5H98V99.4h2.3a7.12,7.12,0,0,1,1.6.1,3,3,0,0,1,1,.4,1.83,1.83,0,0,1,.7,1,2.77,2.77,0,0,1,.3,1.3,2.71,2.71,0,0,1-.6,1.9,2.49,2.49,0,0,1-1.7.8l3.5,4.6h-1.9L99.8,105Zm.1-1.3h.3a2.94,2.94,0,0,0,1.7-.3,1.25,1.25,0,0,0,.4-1.1,1.36,1.36,0,0,0-.5-1.2,3.42,3.42,0,0,0-1.7-.3h-.3v2.9Z"/><path class="cls-4" d="M112.7,109.6l-1.2-2.6h-4l-1.2,2.6h-1.7L109.5,99l4.9,10.6Zm-4.6-4h2.8l-1-2.3c-.1-.1-.1-.3-.2-.5s-.1-.4-.2-.6c-.1.2-.1.4-.2.6s-.1.4-.2.5Z"/><path class="cls-4" d="M115.4,109.6V99.4h1.7v8.7h3.7v1.5Z"/></svg>