<svg id="Слой_1" data-name="Слой 1" xmlns="http://www.w3.org/2000/svg" viewBox="0 0 136.4 128.2"><path d="M20,63.7a38.8,38.8,0,0,1,77.6.1H104a45.15,45.15,0,1,0-45.2,45h.8v-6.3h-.8A38.84,38.84,0,0,1,20,63.7Z"/><path d="M58.8,94.8A30.5,30.5,0,1,1,89.3,63.6h5A35.45,35.45,0,1,0,58.9,99.8h.8v-5h-.9Z"/><path d="M58.7,41.7a22.93,22.93,0,0,1,16.1,6.7c.5.5.9,1,1.4,1.5.1.1.1.2.2.2a12.13,12.13,0,0,1,1,1.4.52.52,0,0,1,.2.4c.3.5.6.9.9,1.4a.76.76,0,0,1,.2.4,8.86,8.86,0,0,1,.8,1.7c0,.1.1.1.1.2a15.87,15.87,0,0,1,.7,2c0,.1.1.2.1.3.1.5.3,1,.4,1.4a21.18,21.18,0,0,1,.5,4.4h4.4a27,27,0,1,0-27,27.6h.2V87a.1.1,0,0,1-.1.1,19.92,19.92,0,0,1-4.2-.4,22.69,22.69,0,0,1,4.1-45Z"/><path d="M66.6,65.1a5.22,5.22,0,0,0-2.1.4,4.52,4.52,0,0,0-1.7,1.1,5.44,5.44,0,0,0-1.2,5.9,4.52,4.52,0,0,0,1.1,1.7,5,5,0,0,0,1.7,1.1,5.38,5.38,0,0,0,2.2.4,4.68,4.68,0,0,0,1.7-.2,3.48,3.48,0,0,0,1.5-.7V72.9a4.73,4.73,0,0,1-3.3,1.3,3.47,3.47,0,0,1-2.6-1.1,3.62,3.62,0,0,1-1-2.7,3.61,3.61,0,0,1,3.7-3.9,4.53,4.53,0,0,1,1.6.3,6,6,0,0,1,1.5.9l.2-1.5a6,6,0,0,0-1.6-.8A4.67,4.67,0,0,0,66.6,65.1Z"/><path d="M72.8,74.1a7.07,7.07,0,0,0,1.8,1.2,5.22,5.22,0,0,0,2.1.4,4.92,4.92,0,0,0,2.1-.4,5.67,5.67,0,0,0,1.8-1.2,6.57,6.57,0,0,0,1.2-1.7,4.48,4.48,0,0,0,.4-2,9.33,9.33,0,0,0-.4-2.2,6.57,6.57,0,0,0-1.2-1.7,5.17,5.17,0,0,0-1.8-1.2,5.71,5.71,0,0,0-4.2,0,5.67,5.67,0,0,0-1.8,1.2,5,5,0,0,0-1.6,3.8,4.64,4.64,0,0,0,.4,2.1A6.57,6.57,0,0,0,72.8,74.1Zm.5-5.2a4.18,4.18,0,0,1,.8-1.2,3.6,3.6,0,0,1,1.2-.8,3.19,3.19,0,0,1,1.4-.3,3.53,3.53,0,0,1,1.4.3,2.55,2.55,0,0,1,1.2.8,3.6,3.6,0,0,1,.8,1.2,4,4,0,0,1,.3,1.5,2.7,2.7,0,0,1-.3,1.5,4.18,4.18,0,0,1-.8,1.2,8.34,8.34,0,0,1-1.2.8,3.42,3.42,0,0,1-2.8,0,4.18,4.18,0,0,1-1.2-.8,3.6,3.6,0,0,1-.8-1.2,4,4,0,0,1-.3-1.5A3.65,3.65,0,0,1,73.3,68.9Z"/><path d="M91,74.4a3.71,3.71,0,0,0,1.3-1.7,6,6,0,0,0,0-4.8A3.71,3.71,0,0,0,91,66.2a4.59,4.59,0,0,0-1.6-.7,20.51,20.51,0,0,0-3.1-.2H84.1v10h2.8a16.12,16.12,0,0,0,2.6-.2A4.13,4.13,0,0,0,91,74.4Zm-3.9-.5H85.7V66.7h1.2a7.75,7.75,0,0,1,1.9.2,3.13,3.13,0,0,1,1,.5,2.73,2.73,0,0,1,.9,1.2,5,5,0,0,1,0,3.4,2.73,2.73,0,0,1-.9,1.2,3.13,3.13,0,0,1-1,.5A6.53,6.53,0,0,1,87.1,73.9Z"/><polygon points="100.3 66.7 100.3 65.3 94.6 65.3 94.6 75.4 94.6 75.5 100.3 75.5 100.3 74 96.3 74 96.3 70.7 100.3 70.7 100.3 69.2 96.3 69.2 96.3 66.7 100.3 66.7"/><path d="M66.6,82.2a5.22,5.22,0,0,0-2.1.4,4.52,4.52,0,0,0-1.7,1.1,5.44,5.44,0,0,0-1.2,5.9,4.52,4.52,0,0,0,1.1,1.7,5,5,0,0,0,1.7,1.1,5.38,5.38,0,0,0,2.2.4,4.68,4.68,0,0,0,1.7-.2,3.48,3.48,0,0,0,1.5-.7V90a4.73,4.73,0,0,1-3.3,1.3,3.47,3.47,0,0,1-2.6-1.1,3.62,3.62,0,0,1-1-2.7,3.61,3.61,0,0,1,3.7-3.9,4.53,4.53,0,0,1,1.6.3,6,6,0,0,1,1.5.9l.2-1.5a6,6,0,0,0-1.6-.8A4.67,4.67,0,0,0,66.6,82.2Z"/><path d="M75.3,81.9,70.4,92.5h1.7l1.2-2.6h4l1.2,2.6h1.7Zm-1.4,6.6,1-2.3c.1-.2.1-.3.2-.5s.1-.4.2-.6c.1.2.1.4.2.6s.1.4.2.5l1,2.3Z"/><path d="M82.7,88h.2l3.5,4.4h1.9l-3.5-4.6a2.49,2.49,0,0,0,1.7-.8,2.71,2.71,0,0,0,.6-1.9,2.77,2.77,0,0,0-.3-1.3,1.83,1.83,0,0,0-.7-1,3,3,0,0,0-1-.4,7.12,7.12,0,0,0-1.6-.1H81.2V92.5h1.5Zm0-4.2H83a3.42,3.42,0,0,1,1.7.3,1.36,1.36,0,0,1,.5,1.2,1.25,1.25,0,0,1-.4,1.1,2.94,2.94,0,0,1-1.7.3h-.4Z"/><polygon points="94.8 91 90.8 91 90.8 87.7 94.8 87.7 94.8 86.2 90.8 86.2 90.8 83.7 94.8 83.7 94.8 82.3 89.1 82.3 89.1 92.5 94.8 92.5 94.8 91"/><polygon points="102.4 91 98.4 91 98.4 87.7 102.4 87.7 102.4 86.2 98.4 86.2 98.4 83.7 102.4 83.7 102.4 82.3 96.7 82.3 96.7 92.5 102.4 92.5 102.4 91"/><path d="M105.8,88h.2l3.5,4.4h1.9l-3.5-4.6a2.49,2.49,0,0,0,1.7-.8,2.71,2.71,0,0,0,.6-1.9,2.77,2.77,0,0,0-.3-1.3,1.83,1.83,0,0,0-.7-1,3,3,0,0,0-1-.4,7.12,7.12,0,0,0-1.6-.1h-2.3V92.5h1.5Zm0-4.2h.3a3.42,3.42,0,0,1,1.7.3,1.36,1.36,0,0,1,.5,1.2,1.25,1.25,0,0,1-.4,1.1,2.94,2.94,0,0,1-1.7.3h-.4Z"/><path d="M66.6,100.7a4.53,4.53,0,0,1,1.6.3,6,6,0,0,1,1.5.9l.2-1.5a6,6,0,0,0-1.6-.8,4.67,4.67,0,0,0-1.7-.3,5.22,5.22,0,0,0-2.1.4,4.52,4.52,0,0,0-1.7,1.1,5.44,5.44,0,0,0-1.2,5.9,4.52,4.52,0,0,0,1.1,1.7,5,5,0,0,0,1.7,1.1,5.38,5.38,0,0,0,2.2.4,4.68,4.68,0,0,0,1.7-.2,3.48,3.48,0,0,0,1.5-.7v-1.9a4.73,4.73,0,0,1-3.3,1.3,3.47,3.47,0,0,1-2.6-1.1,3.62,3.62,0,0,1-1-2.7,3.61,3.61,0,0,1,3.7-3.9Z"/><polygon points="71.7 109.6 77.4 109.6 77.4 108.1 73.4 108.1 73.4 104.8 77.4 104.8 77.4 103.3 73.4 103.3 73.4 100.8 77.4 100.8 77.4 99.4 71.7 99.4 71.7 109.6"/><path d="M86.9,106.5c-.2-.3-.5-.5-.6-.7a2.65,2.65,0,0,0-.5-.6L79.3,99v10.7h1.5v-7.1c.2.2.3.5.5.6s.3.3.5.5l6.6,6.3V99.5H86.9Z"/><polygon points="89.6 100.8 92.3 100.8 92.3 109.6 94 109.6 94 100.8 96.6 100.8 96.6 99.4 89.6 99.4 89.6 100.8"/><path d="M104.82,109.13l-3.22-4.23a2.49,2.49,0,0,0,1.7-.8,2.71,2.71,0,0,0,.6-1.9,2.77,2.77,0,0,0-.3-1.3,1.83,1.83,0,0,0-.7-1,3,3,0,0,0-1-.4,7.12,7.12,0,0,0-1.6-.1H98v10.1h1.5V105h.3l3.4,4.5h1.45l-.05.1h1.7l1.2-2.6h4l1.2,2.6h1.7L109.5,99ZM99.6,103.7h-.1v-2.9h.3a3.42,3.42,0,0,1,1.7.3,1.36,1.36,0,0,1,.5,1.2,1.25,1.25,0,0,1-.4,1.1,2.94,2.94,0,0,1-1.7.3Zm10.3-.4,1,2.3h-2.8l1-2.3c.1-.1.1-.3.2-.5s.1-.4.2-.6c.1.2.1.4.2.6S109.8,103.2,109.9,103.3Z"/><polygon points="117.1 108.1 117.1 99.4 115.4 99.4 115.4 109.6 120.8 109.6 120.8 108.1 117.1 108.1"/></svg>